<?xml version="1.0" encoding="utf-8"?>
<!-- Generator: Adobe Illustrator 25.0.0, SVG Export Plug-In . SVG Version: 6.00 Build 0)  -->
<svg version="1.1" id="Illustration" xmlns="http://www.w3.org/2000/svg" xmlns:xlink="http://www.w3.org/1999/xlink" x="0px"
	 y="0px" viewBox="0 0 3710 3710" style="enable-background:new 0 0 3710 3710;" xml:space="preserve">
<style type="text/css">
	.st0{fill:#F5E6FD;}
	.st1{fill:url(#SVGID_1_);}
	.st2{fill:#FFFFFF;}
	.st3{fill:url(#SVGID_2_);}
	.st4{fill:url(#SVGID_3_);}
	.st5{fill:url(#SVGID_4_);}
	.st6{opacity:0.5;}
	.st7{opacity:0.42;fill:url(#SVGID_5_);}
	.st8{opacity:0.58;fill:url(#SVGID_6_);}
	.st9{opacity:0.28;fill:url(#SVGID_7_);}
	.st10{opacity:0.47;fill:url(#SVGID_8_);}
	.st11{opacity:0.42;fill:url(#SVGID_9_);}
	.st12{fill:url(#SVGID_10_);}
	.st13{fill:url(#SVGID_11_);}
	.st14{fill:url(#SVGID_12_);}
	.st15{fill:url(#SVGID_13_);}
	.st16{fill:url(#SVGID_14_);}
	.st17{fill:url(#SVGID_15_);}
	.st18{fill:url(#SVGID_16_);}
	.st19{fill:url(#SVGID_17_);}
	.st20{fill:#D64997;}
	.st21{fill:url(#SVGID_18_);}
	.st22{fill:url(#SVGID_19_);}
	.st23{fill:url(#SVGID_20_);}
	.st24{fill:url(#SVGID_21_);}
	.st25{fill:url(#SVGID_22_);}
	.st26{fill:url(#SVGID_23_);}
	.st27{fill:url(#SVGID_24_);}
	.st28{fill:url(#SVGID_25_);}
	.st29{fill:url(#SVGID_26_);}
	.st30{fill:url(#SVGID_27_);}
	.st31{fill:url(#SVGID_28_);}
	.st32{fill:url(#SVGID_29_);}
	.st33{fill:url(#SVGID_30_);}
	.st34{fill:url(#SVGID_31_);}
	.st35{fill:url(#SVGID_32_);}
	.st36{fill:url(#SVGID_33_);}
	.st37{fill:url(#SVGID_34_);}
	.st38{fill:url(#SVGID_35_);}
	.st39{fill:url(#SVGID_36_);}
	.st40{opacity:0.3;}
	.st41{fill:url(#SVGID_37_);}
	.st42{fill:url(#SVGID_38_);}
	.st43{fill:url(#SVGID_39_);}
	.st44{fill:url(#SVGID_40_);}
	.st45{fill:url(#SVGID_41_);}
	.st46{fill:url(#SVGID_42_);}
	.st47{opacity:0.56;fill:#FFFFFF;}
	.st48{fill:url(#SVGID_43_);}
	.st49{fill:url(#SVGID_44_);}
	.st50{fill:url(#SVGID_45_);}
	.st51{fill:url(#SVGID_46_);}
	.st52{fill:url(#SVGID_47_);}
</style>
<g>
	<circle class="st0" cx="1821.11" cy="1712.01" r="1417.5"/>
	<g>
		
			<linearGradient id="SVGID_1_" gradientUnits="userSpaceOnUse" x1="6551.0269" y1="257.3752" x2="7597.9741" y2="257.3752" gradientTransform="matrix(0.8844 0.4668 -0.4668 0.8844 -5453.3755 -2280.3359)">
			<stop  offset="0" style="stop-color:#A737D5"/>
			<stop  offset="1" style="stop-color:#EF497A"/>
		</linearGradient>
		<path class="st1" d="M503.22,473.26c-1.55-11.23,14.59-17.09,23.33-8.53c88.82,86.94,297.9,341.94,202.17,744.42
			c-120.11,504.97-14.14,703.25,128.86,831.54c0,0-206.02-73.32-321.05-275.22C254.1,1269.76,530.83,672.93,503.22,473.26z"/>
		<path class="st2" d="M561.4,639.94c6.69,58.09,12.06,116.24,14.97,174.41c3.26,58.16,4.49,116.33,3.61,174.4
			c-1.13,58.06-3.52,116.06-8.75,173.81c-4.93,57.78-12.73,115.25-20.8,172.92c-7.69,57.68-15.81,115.75-17.07,174.87
			c-1.32,59,5.48,119.27,24.78,176.98c4.83,14.38,9.97,28.76,16.04,42.74c5.77,14.09,12.26,27.97,19.02,41.75
			c13.69,27.52,29.5,54.35,47.5,80.1c36.16,51.43,81.18,98.26,131.8,139.07c5.33,4.3,13.55,4.13,18.37-0.36
			c4.73-4.41,4.42-11.37-0.64-15.68l-0.04-0.03c-12-10.22-23.84-20.54-35.14-31.27c-5.74-5.29-11.21-10.79-16.79-16.19
			c-5.34-5.58-10.93-10.98-16.08-16.69c-21-22.54-40.19-46.28-57.3-71.09c-34.45-49.42-60.68-103.36-79.22-158.47
			c-8.92-27.64-15.48-55.75-19.54-84.14c-4.03-28.39-5.56-57.04-5.2-85.74c0.72-57.43,8.21-114.97,15.41-172.71
			c7.12-57.76,13.82-115.86,17.74-174.17c2.05-29.14,3.49-58.33,4.33-87.54c0.52-14.6,0.7-29.21,0.92-43.82
			c0.06-14.62,0.02-29.23-0.15-43.85c-0.82-58.47-3.7-116.94-8.71-175.3c-5.33-58.35-12.45-116.59-22.13-174.56
			c-0.28-1.66-2.05-2.84-3.95-2.65C562.52,636.91,561.22,638.34,561.4,639.94z"/>
	</g>
	<g>
		<g>
			
				<linearGradient id="SVGID_2_" gradientUnits="userSpaceOnUse" x1="-525.0366" y1="3792.2263" x2="479.0163" y2="3792.2263" gradientTransform="matrix(0.7007 -0.7136 0.7136 0.7007 -1984.1885 -1515.4983)">
				<stop  offset="0" style="stop-color:#CE1567"/>
				<stop  offset="1" style="stop-color:#7A1DBC"/>
			</linearGradient>
			<path class="st3" d="M573.38,1700.31c-12.96,11.4-33.34,5.86-38.97-10.45c-31.03-90.02-95.76-352.48,77.84-631.61
				c146.6-235.71,203.69-377.46,225.15-443.6c4.54-13.99,24.29-14.05,28.95-0.1C917.72,768.43,1042.82,1287.21,573.38,1700.31z"/>
			<path class="st2" d="M552.83,1689.19c-0.43,0.04-0.86,0.03-1.3-0.02c-3.7-0.4-6.37-3.73-5.97-7.43
				c0.46-4.19,47.92-423.19,236.95-760.14c1.82-3.24,5.93-4.4,9.17-2.58c3.24,1.82,4.4,5.93,2.58,9.17
				c-187.66,334.5-234.86,750.84-235.31,755.01C558.6,1686.46,555.98,1688.92,552.83,1689.19z"/>
		</g>
	</g>
	<g>
		<linearGradient id="SVGID_3_" gradientUnits="userSpaceOnUse" x1="875.7175" y1="2369.9048" x2="4051.0549" y2="284.1978">
			<stop  offset="0" style="stop-color:#A737D5"/>
			<stop  offset="1" style="stop-color:#C7497A"/>
		</linearGradient>
		<path class="st4" d="M3102.38,2453.51c0,24.83-20.34,45.15-45.2,45.15H613.19c-24.86,0-45.2-20.32-45.2-45.15l-20.34-1404.49
			c0-24.83,29.26-73.32,82.88-69.67l2388.54-61.8c31.19-0.81,61.34,11.2,83.43,33.21c22.09,22.01,34.17,52.11,33.43,83.27
			L3102.38,2453.51z"/>
		<path class="st2" d="M3057.76,2410.19c0,23.52-19.24,42.76-42.76,42.76H672.13c-23.52,0-42.76-19.24-42.76-42.76l-19.19-1275.01
			c2.26-76.73,69.53-104.3,110.31-102.68l2289.26-61.42c21.91-0.59,43.1,7.85,58.62,23.33c15.51,15.49,23.99,36.66,23.44,58.58
			L3057.76,2410.19z"/>
		<g>
			<path class="st2" d="M654.69,1802.24c-2.2,0-4-1.77-4.03-3.98l-1.52-103.4c-0.03-2.23,1.75-4.06,3.98-4.09
				c2.15-0.12,4.06,1.75,4.09,3.98l1.52,103.4c0.03,2.23-1.75,4.06-3.98,4.09C654.73,1802.24,654.71,1802.24,654.69,1802.24z"/>
			<path class="st2" d="M650.97,1548.85c-2.2,0-4-1.77-4.03-3.98l-5.82-396.03c0.12-26.62,8.33-47.89,24.4-63.29
				c29.2-27.97,74.85-26.57,76.77-26.5l731.01-19.62c2.21-0.2,4.08,1.7,4.14,3.92c0.06,2.23-1.7,4.08-3.93,4.14l-731.24,19.62
				c-2.08-0.08-44.42-1.38-71.17,24.26c-14.43,13.83-21.8,33.15-21.91,57.42l5.82,395.95c0.03,2.23-1.75,4.06-3.98,4.09
				C651.01,1548.85,650.99,1548.85,650.97,1548.85z"/>
		</g>
		<linearGradient id="SVGID_4_" gradientUnits="userSpaceOnUse" x1="1243.1064" y1="2929.2278" x2="4418.4438" y2="843.5209">
			<stop  offset="0" style="stop-color:#A737D5"/>
			<stop  offset="1" style="stop-color:#EF497A"/>
		</linearGradient>
		<path class="st5" d="M3151.03,2615.25H479.06c-32.88,0-59.78-27.77-59.78-61.7l0,0c0-33.94,26.9-61.7,59.78-61.7h2671.97
			c32.88,0,59.78,27.77,59.78,61.7l0,0C3210.81,2587.49,3183.91,2615.25,3151.03,2615.25z"/>
	</g>
	<g class="st6">
		<linearGradient id="SVGID_5_" gradientUnits="userSpaceOnUse" x1="678.4971" y1="1199.151" x2="3021.4033" y2="1199.151">
			<stop  offset="0" style="stop-color:#B37CFF"/>
			<stop  offset="1" style="stop-color:#F895E7"/>
		</linearGradient>
		<path class="st7" d="M2981.22,1344.44L719.4,1359.77c-22.53,0.15-40.9-13.77-40.9-31v-194c0-16.67,17.23-30.35,39.01-30.98
			l2261.82-65.23c22.97-0.66,42.07,13.4,42.07,30.98v243.91C3021.4,1330.45,3003.47,1344.29,2981.22,1344.44z"/>
		<linearGradient id="SVGID_6_" gradientUnits="userSpaceOnUse" x1="1429.7904" y1="1820.9619" x2="2256.5732" y2="1820.9619">
			<stop  offset="0" style="stop-color:#B37CFF"/>
			<stop  offset="1" style="stop-color:#F895E7"/>
		</linearGradient>
		<path class="st8" d="M2243.96,2213.49h-786.01c-15.56,0-28.17-12.61-28.17-28.17V1456.6c0-15.56,12.61-28.17,28.17-28.17h778.06
			c11.36,0,20.56,9.21,20.56,20.56v751.88C2256.57,2207.84,2250.93,2213.49,2243.96,2213.49z"/>
		<linearGradient id="SVGID_7_" gradientUnits="userSpaceOnUse" x1="662.4237" y1="2331.1584" x2="2270.6934" y2="2331.1584">
			<stop  offset="0" style="stop-color:#B37CFF"/>
			<stop  offset="1" style="stop-color:#F895E7"/>
		</linearGradient>
		<path class="st9" d="M2267.26,2346.17c-1.29,24.45-21.41,43.66-45.9,43.82l-1524.82,9.64c-18.89-0.16-34.12-15.52-34.12-34.41
			v-54.97c0-26.28,21.3-47.58,47.58-47.58h1542.33c10.14,0,18.37,8.22,18.37,18.37L2267.26,2346.17z"/>
		<linearGradient id="SVGID_8_" gradientUnits="userSpaceOnUse" x1="662.4237" y1="1800.6951" x2="1381.7289" y2="1800.6951">
			<stop  offset="0" style="stop-color:#B37CFF"/>
			<stop  offset="1" style="stop-color:#F895E7"/>
		</linearGradient>
		<path class="st10" d="M1356.3,2195.38H687.85c-14.04,0-25.43-11.39-25.43-25.43v-738.51c0-14.04,11.39-25.43,25.43-25.43h668.45
			c14.04,0,25.43,11.39,25.43,25.43v738.51C1381.73,2184,1370.34,2195.38,1356.3,2195.38z"/>
		<linearGradient id="SVGID_9_" gradientUnits="userSpaceOnUse" x1="2311.4495" y1="1899.6543" x2="3010.5422" y2="1899.6543">
			<stop  offset="0" style="stop-color:#B37CFF"/>
			<stop  offset="1" style="stop-color:#F895E7"/>
		</linearGradient>
		<path class="st11" d="M2996.88,2400.9h-672.01c-7.41,0-13.43-6.01-13.43-13.43v-948.7c0-22.29,18.07-40.37,40.37-40.37h648.76
			c5.5,0,9.97,4.46,9.97,9.97v978.87C3010.54,2394.79,3004.43,2400.9,2996.88,2400.9z"/>
	</g>
	<g>
		<g>
			<g>
				
					<linearGradient id="SVGID_10_" gradientUnits="userSpaceOnUse" x1="-3918.6736" y1="2057.0076" x2="-4735.8027" y2="1350.4854" gradientTransform="matrix(-1 0 0 1 -2948.3323 0)">
					<stop  offset="0" style="stop-color:#A737D5"/>
					<stop  offset="1" style="stop-color:#EF497A"/>
				</linearGradient>
				<path class="st12" d="M1794.75,1367.18l-737.96-6.62c-14.47-0.13-26.25,11.61-26.17,26.08l3.23,566.28
					c0.08,14.57,12.12,26.21,26.68,25.77c133.43-3.98,725.81-21.53,751.96-20.44c25.84,1.08,11.8-453.82,7.95-566.06
					C1819.95,1378.33,1808.63,1367.3,1794.75,1367.18z"/>
				<path class="st2" d="M1059.79,1957.44c-2.59,0-4.66-2.08-4.68-4.64l-3.23-566.28c-0.01-1.27,0.46-2.42,1.36-3.32
					c0.62-0.63,1.71-1.38,3.34-1.38l737.97,6.62c2.51,0.02,4.54,2,4.62,4.49c9.54,277.49,9.72,490.52,0.47,542.71l-0.24,1.37
					l-1.39,0.02c-98.22,1.38-632.09,17.24-738.12,20.4L1059.79,1957.44z M1056.57,1385.2c-0.37,0-0.68,0.12-0.93,0.38
					c-0.26,0.27-0.38,0.55-0.38,0.92l3.23,566.28c0,0.71,0.57,1.29,1.25,1.29l0.11,1.68l-0.05-1.68
					c105.54-3.15,634.98-18.87,736.77-20.38c8.98-54.25,8.69-265.73-0.76-540.64c-0.02-0.69-0.59-1.23-1.29-1.24L1056.57,1385.2z"/>
			</g>
			<path class="st2" d="M1705.68,1884.55h-483.75c-15.06,0-24.42-16.36-16.78-29.34l191.51-325.57c7.99-13.58,27.95-12.54,34.5,1.79
				l92.47,202.62c5.49,12.03,21.12,15.2,30.87,6.27l37.41-34.29c8.69-7.97,22.41-6.44,29.14,3.24l100.62,144.7
				C1730.65,1866.87,1721.41,1884.55,1705.68,1884.55z"/>
			
				<ellipse transform="matrix(0.5847 -0.8112 0.8112 0.5847 -722.74 1627.7719)" class="st2" cx="1228.51" cy="1519.8" rx="69.54" ry="69.54"/>
		</g>
		<g>
			<g>
				
					<linearGradient id="SVGID_11_" gradientUnits="userSpaceOnUse" x1="-3751.5552" y1="2222.6975" x2="-3492.9102" y2="1594.1134" gradientTransform="matrix(-0.9998 -0.0189 -0.0189 0.9998 -2888.7844 19.4772)">
					<stop  offset="0" style="stop-color:#2B3582"/>
					<stop  offset="1" style="stop-color:#150E42"/>
				</linearGradient>
				<path class="st13" d="M546.54,2053.21c18.88-69.84,77.22-127.21,142.23-141.71c11.94-2.66,18.86-14.83,16.06-26.74
					c-0.02-0.08-0.04-0.17-0.06-0.25c-9.42-40.62,16.62-72.97,55.88-82.08c39.26-9.11,76.88,8.49,86.3,49.1
					c6.36,27.41-1.79,58.24-19.81,78.21c-7.43,8.23-8.03,20.51-0.83,28.94c39.62,46.41,55.73,117.25,38.6,180.61
					c-25.23,93.33-112.99,135.02-200.91,111.25C576.1,2226.77,521.31,2146.53,546.54,2053.21z"/>
				<path class="st2" d="M573.88,2142.27l1.71-1.2c-15.74-22.34-17.76-54.58-5.27-84.15c9.92-23.48,27.66-44.96,55.85-67.58
					c10.5-8.43,21.64-16.43,32.41-24.17c12.97-9.32,26.37-18.94,38.8-29.41c11.18-9.42,22.94-21.11,25.4-36.4
					c1.23-7.62,0.08-15.74-1.03-23.59c-1.74-12.29-3.39-23.9,3.82-32.78l-1.62-1.31c-7.78,9.59-5.99,22.2-4.26,34.39
					c1.09,7.7,2.22,15.66,1.04,22.97c-2.36,14.62-13.8,25.96-24.69,35.14c-12.36,10.42-25.74,20.03-38.67,29.32
					c-10.79,7.75-21.95,15.77-32.5,24.23c-28.47,22.85-46.41,44.58-56.47,68.39C555.63,2086.34,557.73,2119.35,573.88,2142.27z"/>
				<path class="st2" d="M615.68,2155.75l1.96-0.71c-10.71-29.62-7.57-66.01,8.6-99.86c16.04-33.55,42.25-60.9,63.3-80.98
					l-1.44-1.51c-21.18,20.2-47.56,47.73-63.74,81.59C607.95,2088.63,604.78,2125.61,615.68,2155.75z"/>
			</g>
			
				<linearGradient id="SVGID_12_" gradientUnits="userSpaceOnUse" x1="-3999.5117" y1="1681.9574" x2="-3776.8311" y2="2184.7566" gradientTransform="matrix(-1 0 0 1 -2948.3323 0)">
				<stop  offset="0" style="stop-color:#F9B776"/>
				<stop  offset="1" style="stop-color:#F47960"/>
			</linearGradient>
			<path class="st14" d="M1037.29,1772.63l0.72-24.12l-25.21-50.06c-4.61-9.16-4.65-19.95-0.1-29.14l28.56-57.66
				c0,0,16.49,125.16,20.83,135.56c4.34,10.4-11.77,29.09-11.77,29.09L1037.29,1772.63z"/>
			
				<linearGradient id="SVGID_13_" gradientUnits="userSpaceOnUse" x1="-3995.5554" y1="1680.2052" x2="-3772.8748" y2="2183.0044" gradientTransform="matrix(-1 0 0 1 -2948.3323 0)">
				<stop  offset="0" style="stop-color:#F9B776"/>
				<stop  offset="1" style="stop-color:#F47960"/>
			</linearGradient>
			<path class="st15" d="M1038.01,1748.51c0,0-76.68,209.04-207.34,274.38c0,0,43.49,70.96,66.18,75.26
				c0,0,139.58-178.65,153.81-325L1038.01,1748.51z"/>
			
				<linearGradient id="SVGID_14_" gradientUnits="userSpaceOnUse" x1="-3460.9509" y1="3041.0781" x2="-3392.9514" y2="3041.0781" gradientTransform="matrix(-1 0 0 1 -2948.3323 0)">
				<stop  offset="0" style="stop-color:#2B3582"/>
				<stop  offset="1" style="stop-color:#150E42"/>
			</linearGradient>
			<path class="st16" d="M512.54,3005.96l-3.86,31.7c-4.02,15.07-23.41,53.03-48.31,50.56c-15.32-1.52-17.16-46.27-15.03-52.98
				c3.89-12.24,11.01-30.61,21.27-41.42h35.17C508.29,2993.82,513.32,2999.51,512.54,3005.96z"/>
			
				<linearGradient id="SVGID_15_" gradientUnits="userSpaceOnUse" x1="-3747.4368" y1="3289.5837" x2="-3649.8689" y2="2149.2593" gradientTransform="matrix(-1 0 0 1 -2948.3323 0)">
				<stop  offset="0" style="stop-color:#F9B776"/>
				<stop  offset="1" style="stop-color:#F47960"/>
			</linearGradient>
			<path class="st17" d="M787.98,2634.59l5.94,34.92c0,0-19.88,201.34-23.41,281.88c-0.55,12.63,2.71,25.1,9.34,35.87l34.56,56.13
				l-87.84-51.84l-1.75-10.72l14.38-19.77l-18.84-225.56c-1.11-13.25,1.63-26.54,7.88-38.28l18.17-34.13L787.98,2634.59z"/>
			
				<linearGradient id="SVGID_16_" gradientUnits="userSpaceOnUse" x1="-3701.7126" y1="3009.8428" x2="-3592.0083" y2="3009.8428" gradientTransform="matrix(-1 0 0 1 -2948.3323 0)">
				<stop  offset="0" style="stop-color:#2B3582"/>
				<stop  offset="1" style="stop-color:#150E42"/>
			</linearGradient>
			<path class="st18" d="M820.19,3051.51h-28.03c-5.25,0-10.2-2.41-13.4-6.57c-8.74-11.36-26.85-33.51-35.5-34.09
				c-11.65-0.78-10.16,40.66-10.16,40.66h-6.53l-8.27-51.49c-2.08-12.95,4.36-25.79,15.99-31.86l0,0c0,0,2.66,19.7,17.11,28.42
				c14.45,8.72,58.79,39.93,58.79,39.93s5.43-0.77,11.39,0.3C830.42,3038.42,829.18,3051.51,820.19,3051.51z"/>
			
				<linearGradient id="SVGID_17_" gradientUnits="userSpaceOnUse" x1="-3551.1733" y1="3306.5508" x2="-3453.5801" y2="2165.9272" gradientTransform="matrix(-1 0 0 1 -2948.3323 0)">
				<stop  offset="0" style="stop-color:#F9B776"/>
				<stop  offset="1" style="stop-color:#F47960"/>
			</linearGradient>
			<path class="st19" d="M667.67,2651.17c0,0-116.45,220.89-134.96,271.33c-18.51,50.43-25,92.51-25.24,96.49
				c-0.39,6.23-8.13,12.2-29.48,12.2c-11.02,0-16.41-4.42-19.05-8.69c-2.25-3.65-2.37-8.21-0.47-12.05
				c6.74-13.63,28.11-57.2,36.03-76.96c9.45-23.59,29.78-130.51,40.94-167.68c11.15-37.17,23.76-77.5,72.32-114.64
				C607.75,2651.17,641.08,2618.52,667.67,2651.17z"/>
			<path class="st2" d="M741.23,2289.23c17.06-72.27-0.1-126.71-18.12-160.28c-14.37-26.77-4.27-59.89,22.69-73.91
				c42.13-21.91,84.88-32.16,84.88-32.16s83.48,61.03,73.58,108.8c-5.8,28-58.68,167.7-58.68,167.7S796.68,2322.53,741.23,2289.23z"
				/>
			<path class="st20" d="M674.63,2352.24c12.22-36.83,66.6-63.02,66.6-63.02c55.45,33.3,104.34,10.16,104.34,10.16
				s10.96,41.91,3.4,80.86c-7.57,38.95-55.05,289.26-55.05,289.26c-74.81,15.16-189.87-15.25-189.87-15.25
				C651.7,2569.65,662.41,2389.07,674.63,2352.24z"/>
			
				<linearGradient id="SVGID_18_" gradientUnits="userSpaceOnUse" x1="-3758.1367" y1="2165.5657" x2="-3739.8091" y2="2031.484" gradientTransform="matrix(-1 0 0 1 -2948.3323 0)">
				<stop  offset="0" style="stop-color:#F9B776"/>
				<stop  offset="1" style="stop-color:#F47960"/>
			</linearGradient>
			<path class="st21" d="M776.1,1938.77l-24.42,109.7c-2.34,9.66,6.47,8.08,16.24,6.24c16-3.02,36.62-9.23,43.51-21.68
				c0.7-1.27,1.05-2.7,1.25-4.13l10.49-76.07c0.83-6.03-2.43-11.89-8-14.36l-20.25-8.98C787.13,1926.03,778.1,1930.48,776.1,1938.77
				z"/>
			
				<linearGradient id="SVGID_19_" gradientUnits="userSpaceOnUse" x1="-3855.0164" y1="1852.0568" x2="-3872.2478" y2="2276.2109" gradientTransform="matrix(-1 0 0 1 -2948.3323 0)">
				<stop  offset="0" style="stop-color:#F9B776"/>
				<stop  offset="1" style="stop-color:#F47960"/>
			</linearGradient>
			<path class="st22" d="M1081.35,1866.32c0,0-64.28,223.29-323.48,202.31c-16.58-1.34-31.15,10.95-32.44,27.53l-0.7,8.96
				c-1.87,24.03,17.74,44.28,41.81,43.07c86.21-4.36,271.35-38.22,334.81-243.06L1081.35,1866.32z"/>
			
				<linearGradient id="SVGID_20_" gradientUnits="userSpaceOnUse" x1="-4047.5754" y1="1848.4058" x2="-4063.6279" y2="2243.543" gradientTransform="matrix(-1 0 0 1 -2948.3323 0)">
				<stop  offset="0" style="stop-color:#F9B776"/>
				<stop  offset="1" style="stop-color:#F47960"/>
			</linearGradient>
			<path class="st23" d="M1101.35,1905.13c0,0,12.35-36.35,15.45-59.07s-8.32-73.71-18.13-88.05
				c-9.82-14.34-11.46,20.81-15.88,37.33c-4.42,16.52,3.06,40.09,3.06,40.09l-4.51,30.89L1101.35,1905.13z"/>
			<g>
				
					<linearGradient id="SVGID_21_" gradientUnits="userSpaceOnUse" x1="-11881.2041" y1="4475.9023" x2="-11758.4688" y2="4617.0156" gradientTransform="matrix(-0.9653 0.2612 0.2612 0.9653 -11805.3115 649.0368)">
					<stop  offset="0" style="stop-color:#F9B776"/>
					<stop  offset="1" style="stop-color:#F47960"/>
				</linearGradient>
				<path class="st24" d="M826.18,1848.27c0,0,61.75,89.96,23.35,115.03c-38.4,25.07-82.36-38.87-82.36-38.87s-13.8-48.86,1.9-65.05
					C784.76,1843.19,826.18,1848.27,826.18,1848.27z"/>
				
					<linearGradient id="SVGID_22_" gradientUnits="userSpaceOnUse" x1="-3880.9458" y1="2176.7407" x2="-3619.9958" y2="1542.5549" gradientTransform="matrix(-0.9998 -0.0189 -0.0189 0.9998 -2888.7844 19.4772)">
					<stop  offset="0" style="stop-color:#2B3582"/>
					<stop  offset="1" style="stop-color:#150E42"/>
				</linearGradient>
				<path class="st25" d="M800.27,1826.45c0,0,26.87,6.9,30.42,19.19c3.55,12.28-38.71,22.81-50.51,23.14l-10.42,49.09
					c0,0-27.19-46.88-15.57-73.44C765.81,1817.87,800.27,1826.45,800.27,1826.45z"/>
				
					<linearGradient id="SVGID_23_" gradientUnits="userSpaceOnUse" x1="-11850.5391" y1="4449.23" x2="-11727.8047" y2="4590.3418" gradientTransform="matrix(-0.9653 0.2612 0.2612 0.9653 -11805.3115 649.0368)">
					<stop  offset="0" style="stop-color:#F9B776"/>
					<stop  offset="1" style="stop-color:#F47960"/>
				</linearGradient>
				<path class="st26" d="M779.58,1918.13c0,0-24.15-29.06-34.32-10.6c-10.17,18.45,21.61,33.05,32.87,24.11L779.58,1918.13z"/>
			</g>
		</g>
	</g>
	<g>
		<g>
			
				<linearGradient id="SVGID_24_" gradientUnits="userSpaceOnUse" x1="2853.72" y1="831.9984" x2="2739.084" y2="1068.2889" gradientTransform="matrix(0.987 0.1608 -0.1608 0.987 126.9837 357.2448)">
				<stop  offset="0" style="stop-color:#2B3582"/>
				<stop  offset="1" style="stop-color:#150E42"/>
			</linearGradient>
			<path class="st27" d="M2589.61,1836.15c-0.59,1.11-37.45,28.24-37.45,28.24s8.14,58.24,41.2,81.24
				c36.35,25.29,87.68-20.83,87.68-20.83s40.85,9.71,62.58-75.33c4.98-19.51-23.79-21.16-58.51-17.57
				C2640.33,1836.54,2589.61,1836.15,2589.61,1836.15z"/>
			<path class="st2" d="M2521.71,2034.85c14.42-9.92,30.37-17.39,47.27-21.99c6.35-1.73,40.63,8.24,61.83,7.75
				c29.09-0.67,58.7-13.91,82.69-7.93c23.82,5.94,43.32,13.69,54.57,21.7c33.69,23.96,53.48,68.65,65.53,112.91
				c-22.83,23.43-51.56,33.85-51.56,33.85l-5.31,215.15l-127.22,65.09l-145.21-72.9l5.2-210.25c0,0-46.11-21.47-49.49-29.29
				C2456.62,2141.12,2481.02,2062.82,2521.71,2034.85z"/>
			<linearGradient id="SVGID_25_" gradientUnits="userSpaceOnUse" x1="2429.5842" y1="2101.9358" x2="2671.3428" y2="2685.9238">
				<stop  offset="0" style="stop-color:#F9B776"/>
				<stop  offset="1" style="stop-color:#F47960"/>
			</linearGradient>
			<path class="st28" d="M2461.16,2148c0,0-61.79,171.31,79.12,241.72c29.26-3.89,18-52.48,18-52.48s-61.22-13.55-42.84-156.46
				C2498.51,2166.86,2461.16,2148,2461.16,2148z"/>
			
				<linearGradient id="SVGID_26_" gradientUnits="userSpaceOnUse" x1="-7025.2393" y1="2100.6804" x2="-6783.481" y2="2684.6685" gradientTransform="matrix(-1 0 0 1 -4167.0742 0)">
				<stop  offset="0" style="stop-color:#F9B776"/>
				<stop  offset="1" style="stop-color:#F47960"/>
			</linearGradient>
			<path class="st29" d="M2829.63,2148c0,0,42.52,178.82-79.12,241.72c-29.26-3.89-18.01-52.48-18.01-52.48s49.34-24.3,42.84-156.46
				C2792.27,2166.86,2829.63,2148,2829.63,2148z"/>
			<linearGradient id="SVGID_27_" gradientUnits="userSpaceOnUse" x1="2644.3306" y1="2177.4192" x2="2631.7644" y2="2686.3511">
				<stop  offset="0" style="stop-color:#2B3582"/>
				<stop  offset="1" style="stop-color:#150E42"/>
			</linearGradient>
			<path class="st30" d="M2772.27,2401.75h-262.31c-4.58,0-8.33-3.75-8.33-8.33v-171.74c0-4.58,3.75-8.33,8.33-8.33h262.31
				c4.58,0,8.33,3.75,8.33,8.33v171.74C2780.61,2398,2776.86,2401.75,2772.27,2401.75z"/>
			<g>
				<path class="st20" d="M2902.98,2457.6c-31.93-7.33-105.72-3.39-105.72-3.39l-3,8.13l-4.97,40.4c0,0,70.27,12.67,104.91,12.64
					c3.53,0,6.77-0.53,9.72-1.45c1.06-0.95,2.09-1.93,3.06-3C2921.68,2494.88,2917.43,2471.3,2902.98,2457.6z"/>
				<linearGradient id="SVGID_28_" gradientUnits="userSpaceOnUse" x1="2876.6306" y1="2245.4536" x2="2737.1768" y2="2623.1802">
					<stop  offset="0" style="stop-color:#F9B776"/>
					<stop  offset="1" style="stop-color:#F47960"/>
				</linearGradient>
				<path class="st31" d="M2776.05,2451.94l12.5,0.53c6.71,0.29,13.04,3.56,17.55,9.08c4.51,5.52,6.84,12.82,6.44,20.26
					c-0.32,5.93-2.75,11.48-6.76,15.41c-4.01,3.93-9.28,5.93-14.62,5.55l-19.12-1.36L2776.05,2451.94z"/>
			</g>
			<g>
				<path class="st20" d="M2355.9,2453.72c32.1-6.35,105.76-0.14,105.76-0.14l2.8,8.22l3.96,40.54c0,0-70.56,10.51-105.19,9.41
					c-3.53-0.11-6.75-0.74-9.68-1.75c-1.03-0.98-2.04-1.99-2.99-3.09C2336.27,2490.4,2341.1,2466.97,2355.9,2453.72z"/>
				<linearGradient id="SVGID_29_" gradientUnits="userSpaceOnUse" x1="2597.2322" y1="2131.6255" x2="2457.7048" y2="2509.5508">
					<stop  offset="0" style="stop-color:#F9B776"/>
					<stop  offset="1" style="stop-color:#F47960"/>
				</linearGradient>
				<path class="st32" d="M2482.91,2451.95l-12.5,0.15c-6.72,0.08-13.12,3.16-17.77,8.53c-4.65,5.38-7.15,12.6-6.94,20.05
					c0.17,5.94,2.46,11.56,6.38,15.61c3.91,4.06,9.12,6.22,14.48,6l19.15-0.77L2482.91,2451.95z"/>
			</g>
			<linearGradient id="SVGID_30_" gradientUnits="userSpaceOnUse" x1="1958.0018" y1="3061.0168" x2="2380.8535" y2="2691.7668">
				<stop  offset="0" style="stop-color:#53D8FF"/>
				<stop  offset="1" style="stop-color:#3840F7"/>
			</linearGradient>
			<path class="st33" d="M2911.9,2330.95c-14.48-33.32-49.89-38.73-80.03-23.15c-0.52,0.69-191.41,98.52-359.75,141.4
				c4.82,15.45,7.3,31.89,7.84,48.05c0.1,3.6,0.04,7.15-0.17,10.65c129.09-6.63,269.19-49.68,389.58-87.52
				C2906.7,2408.34,2927.95,2367.88,2911.9,2330.95z"/>
			<linearGradient id="SVGID_31_" gradientUnits="userSpaceOnUse" x1="3045.4299" y1="2636.0574" x2="2357.5527" y2="2317.4307">
				<stop  offset="0" style="stop-color:#53D8FF"/>
				<stop  offset="1" style="stop-color:#3840F7"/>
			</linearGradient>
			<path class="st34" d="M2776.97,2499.77c-0.5-18.62,3.12-35.96,10.86-52.02c0.22-0.74,0.49-1.44,0.72-2.17
				c-9.61-2.98-22.03-7.01-38.35-12.55c-119.54-40.91-210.73-82.22-297.76-129.77c-33.81-18.47-72.26-6.09-83.08,33.91
				c-9.66,35.72,11.56,66.21,43.76,76.92c96.34,32.06,46.18,23.15,77.65,33.28c84.5,26.13,189.65,49.93,286.4,56.43
				C2777.1,2502.48,2777.02,2501.12,2776.97,2499.77z"/>
			<linearGradient id="SVGID_32_" gradientUnits="userSpaceOnUse" x1="2641.8135" y1="2150.1541" x2="2638.5969" y2="1870.277">
				<stop  offset="0" style="stop-color:#F9B776"/>
				<stop  offset="1" style="stop-color:#F47960"/>
			</linearGradient>
			<path class="st35" d="M2567.98,2012.86c0,0,12.86,55.71,75.27,54.55c63.57-1.16,69.24-54.74,69.24-54.74l-41.53-8.89l-3.47-46.27
				l-62.47,4.63l-1.16,43.96L2567.98,2012.86z"/>
			
				<linearGradient id="SVGID_33_" gradientUnits="userSpaceOnUse" x1="2736.1797" y1="1213.3467" x2="2746.2002" y2="969.8052" gradientTransform="matrix(0.987 0.1608 -0.1608 0.987 126.9837 357.2448)">
				<stop  offset="0" style="stop-color:#F9B776"/>
				<stop  offset="1" style="stop-color:#F47960"/>
			</linearGradient>
			<path class="st36" d="M2613.8,1826.42c0,0-71.59,138.67,13.33,172.31c59.9,23.73,97.45-92.09,86.25-123.45
				c-17.32-48.5-28.73-42.75-28.73-42.75L2613.8,1826.42z"/>
			
				<linearGradient id="SVGID_34_" gradientUnits="userSpaceOnUse" x1="2854.5598" y1="798.743" x2="2725.5696" y2="1064.6207" gradientTransform="matrix(0.987 0.1608 -0.1608 0.987 126.9837 357.2448)">
				<stop  offset="0" style="stop-color:#2B3582"/>
				<stop  offset="1" style="stop-color:#150E42"/>
			</linearGradient>
			<path class="st37" d="M2730.6,1813.8c35.36,9.72,5.14,86.42-48.1,68.28c-53.24-18.14-74.17-17.87-82.46-3.25
				c-8.3,14.62-10.08,66.54-28.08,40.88c-19.74-28.14-30.74-84.61-6.54-102.81c21.63-16.27,26.67-41.5,52.61-40.62
				c34.43,1.16,61.06-14.1,76.6-3.1C2712.47,1785.82,2704.58,1806.65,2730.6,1813.8z"/>
			
				<linearGradient id="SVGID_35_" gradientUnits="userSpaceOnUse" x1="2304.7031" y1="2571.9543" x2="2320.406" y2="2190.3037" gradientTransform="matrix(0.9911 -0.1329 0.1329 0.9911 -26.0254 -216.2621)">
				<stop  offset="0" style="stop-color:#F9B776"/>
				<stop  offset="1" style="stop-color:#F47960"/>
			</linearGradient>
			<path class="st38" d="M2596.76,1890.75c0,0-15.27-16.43-17.71,3.37c-2.44,19.8,5.4,45.3,14.59,31.32
				C2602.84,1911.47,2596.76,1890.75,2596.76,1890.75z"/>
		</g>
		<linearGradient id="SVGID_36_" gradientUnits="userSpaceOnUse" x1="2642.9141" y1="2138.4668" x2="2634.7898" y2="2527.2632">
			<stop  offset="0" style="stop-color:#53D8FF"/>
			<stop  offset="1" style="stop-color:#3840F7"/>
		</linearGradient>
		<path class="st39" d="M2657.57,2264.36c1.48,10-3.88,19.07-13.87,20.55c-10,1.48-19.3-5.43-20.78-15.42
			c-1.48-10,3.1-19.92,13.09-21.4C2646.01,2246.61,2656.09,2254.37,2657.57,2264.36z"/>
	</g>
	<g>
		<circle class="st2" cx="2153.01" cy="1926.72" r="278.88"/>
		<g>
			<path class="st20" d="M1903.13,1911.93l63.62-33.17v14.14c0,1.07-0.27,2.05-0.8,2.93c-0.54,0.88-1.42,1.64-2.65,2.29
				l-29.16,14.94c-1.23,0.64-2.53,1.19-3.9,1.65c-1.36,0.46-2.83,0.87-4.38,1.24c1.55,0.37,3.01,0.79,4.38,1.24
				c1.37,0.45,2.66,1,3.9,1.65l29.16,15.02c1.23,0.64,2.11,1.4,2.65,2.29c0.53,0.88,0.8,1.86,0.8,2.93v14.14l-63.62-33.26V1911.93z"
				/>
			<path class="st20" d="M1995.74,1970.09v-119.37h19.84v45.87c3.21-3.05,6.75-5.51,10.6-7.39c3.86-1.87,8.38-2.81,13.57-2.81
				c4.5,0,8.49,0.76,11.97,2.29c3.48,1.52,6.39,3.67,8.72,6.42c2.33,2.76,4.1,6.05,5.3,9.88c1.21,3.83,1.81,8.05,1.81,12.65v52.45
				h-19.84v-52.45c0-5.03-1.16-8.93-3.49-11.69c-2.33-2.76-5.82-4.14-10.48-4.14c-3.43,0-6.64,0.78-9.64,2.33
				c-3,1.55-5.84,3.67-8.51,6.35v59.6H1995.74z"/>
			<path class="st20" d="M2114.14,1971.37c-7.12,0-12.61-2.02-16.47-6.07c-3.86-4.04-5.78-9.63-5.78-16.75v-46.03h-8.35
				c-1.07,0-2-0.35-2.77-1.05c-0.78-0.7-1.17-1.74-1.17-3.13v-7.87l13.25-2.17l4.18-22.49c0.21-1.07,0.71-1.9,1.49-2.49
				c0.78-0.59,1.75-0.88,2.93-0.88h10.28v25.95h21.69v14.14h-21.69v44.66c0,2.57,0.64,4.58,1.93,6.02c1.29,1.45,3,2.17,5.14,2.17
				c1.23,0,2.26-0.15,3.09-0.44c0.83-0.3,1.55-0.6,2.17-0.93c0.62-0.32,1.16-0.63,1.65-0.92c0.48-0.29,0.96-0.44,1.45-0.44
				c0.59,0,1.07,0.15,1.45,0.44c0.37,0.3,0.78,0.74,1.2,1.33l5.94,9.64c-2.89,2.41-6.21,4.23-9.96,5.46
				C2122.04,1970.76,2118.16,1971.37,2114.14,1971.37z"/>
			<path class="st20" d="M2149.24,1970.09v-82.41h12.13c2.57,0,4.26,1.2,5.06,3.61l1.29,6.11c1.45-1.61,2.96-3.08,4.54-4.42
				c1.58-1.34,3.27-2.49,5.06-3.45s3.72-1.73,5.78-2.29c2.06-0.56,4.32-0.84,6.79-0.84c5.19,0,9.46,1.41,12.81,4.22
				c3.35,2.81,5.85,6.54,7.51,11.2c1.29-2.73,2.89-5.07,4.82-7.03c1.93-1.95,4.04-3.55,6.35-4.78c2.3-1.23,4.75-2.14,7.35-2.73
				c2.6-0.59,5.21-0.88,7.83-0.88c4.55,0,8.59,0.7,12.13,2.09c3.53,1.39,6.51,3.43,8.92,6.1c2.41,2.68,4.24,5.95,5.5,9.8
				c1.26,3.86,1.89,8.27,1.89,13.25v52.45h-19.84v-52.45c0-5.25-1.15-9.2-3.45-11.85c-2.3-2.65-5.68-3.98-10.12-3.98
				c-2.04,0-3.92,0.35-5.66,1.05c-1.74,0.7-3.27,1.7-4.58,3.01c-1.31,1.31-2.34,2.96-3.09,4.94c-0.75,1.98-1.12,4.26-1.12,6.83
				v52.45h-19.92v-52.45c0-5.51-1.11-9.53-3.33-12.05c-2.22-2.52-5.5-3.78-9.84-3.78c-2.84,0-5.5,0.71-7.99,2.13
				c-2.49,1.42-4.81,3.36-6.95,5.83v60.32H2149.24z"/>
			<path class="st20" d="M2305.64,1850.72v119.37h-19.84v-119.37H2305.64z"/>
			<path class="st20" d="M2335.84,1953.22v-14.14c0-1.07,0.27-2.05,0.8-2.93c0.53-0.88,1.42-1.65,2.65-2.29l29.16-15.02
				c2.36-1.18,5.11-2.14,8.27-2.89c-1.55-0.37-3.01-0.79-4.38-1.24c-1.36-0.45-2.66-1-3.9-1.65l-29.16-14.94
				c-1.23-0.64-2.12-1.4-2.65-2.29c-0.54-0.88-0.8-1.86-0.8-2.93v-14.14l63.62,33.17v8.03L2335.84,1953.22z"/>
		</g>
	</g>
	<g>
		<circle class="st2" cx="2836.82" cy="1428.44" r="215.62"/>
		<g>
			<path class="st20" d="M2705.9,1468.32l-46.51-28.76v-10.29l46.51-28.63v14.84l-32.13,18.93l32.13,19.06V1468.32z"/>
			<path class="st20" d="M2786.84,1399.97c-5.15,0-9.2,3.01-12.17,9.04c-2.97,6.02-4.45,14.4-4.45,25.13
				c0,22.34,5.83,33.51,17.48,33.51c5.1,0,10.44-1.63,16.03-4.88v15.96c-4.71,3.12-10.73,4.68-18.08,4.68
				c-10.86,0-19.21-4.32-25.03-12.96c-5.83-8.64-8.74-20.79-8.74-36.45c0-15.66,3-27.86,9-36.61c6-8.75,14.35-13.13,25.03-13.13
				c3.52,0,6.89,0.48,10.13,1.45c3.23,0.97,6.69,2.66,10.39,5.08l-5.94,14.58c-1.98-1.36-4.09-2.6-6.33-3.73
				C2791.92,1400.54,2789.48,1399.97,2786.84,1399.97z"/>
			<path class="st20" d="M2861.32,1455.52c0,9.02-2.28,15.92-6.83,20.71c-4.55,4.79-11.12,7.19-19.69,7.19
				c-8.4,0-15.55-1.65-21.44-4.95v-17.74c7.21,4.71,13.83,7.06,19.86,7.06c3.43,0,6.01-0.95,7.75-2.84
				c1.74-1.89,2.61-4.46,2.61-7.72c0-3.21-1.03-6.14-3.1-8.81c-2.07-2.66-5.48-5.62-10.23-8.87c-4.13-2.86-7.27-5.59-9.4-8.21
				c-2.13-2.61-3.78-5.55-4.95-8.81s-1.75-7.04-1.75-11.35c0-8.27,2.3-14.82,6.89-19.66s10.76-7.26,18.5-7.26
				c7.39,0,14.49,2.07,21.31,6.2l-5.94,14.38c-2.11-1.23-4.32-2.33-6.63-3.3c-2.31-0.97-4.78-1.45-7.42-1.45
				c-2.9,0-5.14,0.96-6.7,2.87c-1.56,1.91-2.34,4.52-2.34,7.82c0,3.26,0.94,6.09,2.81,8.51c1.87,2.42,5.13,5.17,9.8,8.25
				c6.29,4.22,10.67,8.53,13.16,12.93C2860.07,1444.88,2861.32,1449.89,2861.32,1455.52z"/>
			<path class="st20" d="M2917.13,1455.52c0,9.02-2.28,15.92-6.83,20.71c-4.55,4.79-11.12,7.19-19.69,7.19
				c-8.4,0-15.55-1.65-21.44-4.95v-17.74c7.21,4.71,13.83,7.06,19.86,7.06c3.43,0,6.01-0.95,7.75-2.84
				c1.74-1.89,2.61-4.46,2.61-7.72c0-3.21-1.03-6.14-3.1-8.81c-2.07-2.66-5.48-5.62-10.23-8.87c-4.13-2.86-7.27-5.59-9.4-8.21
				c-2.13-2.61-3.78-5.55-4.95-8.81s-1.75-7.04-1.75-11.35c0-8.27,2.3-14.82,6.89-19.66c4.6-4.84,10.76-7.26,18.5-7.26
				c7.39,0,14.49,2.07,21.31,6.2l-5.94,14.38c-2.11-1.23-4.32-2.33-6.63-3.3c-2.31-0.97-4.78-1.45-7.42-1.45
				c-2.9,0-5.14,0.96-6.7,2.87c-1.56,1.91-2.34,4.52-2.34,7.82c0,3.26,0.94,6.09,2.81,8.51c1.87,2.42,5.13,5.17,9.8,8.25
				c6.29,4.22,10.67,8.53,13.16,12.93C2915.88,1444.88,2917.13,1449.89,2917.13,1455.52z"/>
			<path class="st20" d="M2960.86,1453.47l32.32-19.06l-32.32-18.93v-14.84l46.51,28.63v10.29l-46.51,28.76V1453.47z"/>
		</g>
	</g>
	<g>
		
			<ellipse transform="matrix(0.7071 -0.7071 0.7071 0.7071 -334.6078 2160.1318)" class="st2" cx="2440.21" cy="1483.97" rx="157.16" ry="157.16"/>
		<g>
			<path class="st20" d="M2357.12,1484.23l45.42-23.68v10.09c0,0.77-0.19,1.46-0.57,2.09c-0.38,0.63-1.01,1.18-1.89,1.64
				l-20.82,10.67c-0.88,0.46-1.81,0.85-2.78,1.17c-0.97,0.33-2.02,0.62-3.12,0.89c1.11,0.27,2.15,0.57,3.12,0.89
				c0.98,0.32,1.9,0.72,2.78,1.17l20.82,10.73c0.88,0.46,1.51,1,1.89,1.64c0.38,0.63,0.57,1.33,0.57,2.09v10.1l-45.42-23.74V1484.23
				z"/>
			<path class="st20" d="M2428.17,1525.92c-0.34,0.88-0.78,1.64-1.32,2.3c-0.54,0.65-1.15,1.19-1.84,1.63
				c-0.69,0.44-1.42,0.77-2.18,1c-0.77,0.23-1.51,0.35-2.24,0.35h-5.97l33.49-85.68c0.65-1.61,1.58-2.84,2.81-3.7
				c1.22-0.86,2.7-1.29,4.42-1.29h6.02L2428.17,1525.92z"/>
			<path class="st20" d="M2473.19,1513.71v-10.1c0-0.76,0.19-1.46,0.57-2.09c0.38-0.63,1.01-1.18,1.89-1.64l20.82-10.73
				c1.68-0.84,3.65-1.53,5.91-2.06c-1.11-0.27-2.15-0.56-3.12-0.89c-0.97-0.32-1.9-0.72-2.78-1.17l-20.82-10.67
				c-0.88-0.46-1.51-1-1.89-1.64c-0.38-0.63-0.57-1.33-0.57-2.09v-10.09l45.42,23.68v5.73L2473.19,1513.71z"/>
		</g>
	</g>
	<g>
		<g>
			<g class="st40">
				
					<linearGradient id="SVGID_37_" gradientUnits="userSpaceOnUse" x1="2908.7175" y1="-521.9607" x2="3536.0903" y2="-521.9607" gradientTransform="matrix(0.9596 0.2814 -0.2814 0.9596 -608.2361 254.0611)">
					<stop  offset="0" style="stop-color:#B37CFF"/>
					<stop  offset="1" style="stop-color:#F895E7"/>
				</linearGradient>
				<path class="st41" d="M2272.85,813.11c-5.33-1.56-8.74-6.94-7.71-12.53c2.23-12.22,5.03-24.53,8.32-36.58
					c1.6-5.86,7.64-9.32,13.5-7.72c0.07,0.02,0.14,0.04,0.21,0.06c5.73,1.68,9.09,7.65,7.51,13.45c-3.12,11.45-5.78,23.14-7.9,34.75
					c-1.09,5.98-6.82,9.94-12.8,8.84C2273.59,813.31,2273.22,813.22,2272.85,813.11z M2300.49,721.36
					c-0.41-0.12-0.82-0.27-1.23-0.44c-5.59-2.38-8.19-8.84-5.81-14.43c4.89-11.48,10.33-22.86,16.15-33.83
					c2.85-5.37,9.48-7.4,14.87-4.56c5.37,2.85,7.4,9.51,4.56,14.87c-5.53,10.43-10.69,21.24-15.34,32.15
					C2311.49,720.3,2305.77,722.91,2300.49,721.36z M2347.65,637.98c-1.18-0.34-2.31-0.89-3.36-1.65
					c-4.92-3.57-6.01-10.45-2.45-15.36c7.31-10.08,15.15-19.97,23.3-29.39c3.98-4.59,10.92-5.09,15.52-1.12
					c4.59,3.98,5.09,10.92,1.12,15.52c-7.74,8.95-15.19,18.33-22.13,27.91C2356.85,637.75,2351.99,639.25,2347.65,637.98z
					 M2412.28,567.22c-1.94-0.57-3.75-1.68-5.18-3.32c-4-4.57-3.52-11.52,1.05-15.52c9.39-8.19,19.24-16.08,29.29-23.44
					c4.9-3.58,11.78-2.52,15.37,2.37c3.59,4.9,2.53,11.78-2.37,15.37c-9.54,6.99-18.9,14.48-27.82,22.27
					C2419.68,567.52,2415.77,568.24,2412.28,567.22z M2491.07,512.65c-2.72-0.8-5.14-2.64-6.59-5.34
					c-2.88-5.35-0.88-12.02,4.47-14.9c10.94-5.89,22.29-11.4,33.74-16.37c5.57-2.42,12.05,0.13,14.47,5.71
					c2.42,5.57-0.14,12.05-5.71,14.47c-10.88,4.72-21.66,9.95-32.06,15.56C2496.73,513.21,2493.75,513.44,2491.07,512.65z
					 M2579.96,476.88c-3.53-1.03-6.46-3.81-7.51-7.61c-1.63-5.85,1.8-11.92,7.65-13.54c11.99-3.33,24.28-6.2,36.52-8.5
					c5.97-1.12,11.72,2.81,12.84,8.78c1.12,5.97-2.8,11.72-8.77,12.84c-11.63,2.19-23.3,4.91-34.7,8.07
					C2583.93,477.49,2581.86,477.43,2579.96,476.88z M2974.09,565.16c-1.46-0.43-2.85-1.17-4.08-2.23
					c-8.95-7.72-18.35-15.15-27.96-22.09c-4.92-3.56-6.03-10.43-2.48-15.35c3.56-4.93,10.43-6.03,15.36-2.48
					c10.11,7.3,20.02,15.13,29.45,23.26c4.6,3.97,5.11,10.91,1.14,15.51C2982.62,565.16,2978.11,566.33,2974.09,565.16z
					 M2674.5,461.7c-4.38-1.28-7.67-5.23-7.89-10.04c-0.28-6.07,4.4-11.22,10.47-11.5c12.44-0.58,25.05-0.63,37.49-0.15
					c6.07,0.27,10.8,5.35,10.56,11.42c-0.24,6.07-5.35,10.8-11.42,10.56c-11.81-0.46-23.79-0.42-35.6,0.14
					C2676.86,462.18,2675.64,462.03,2674.5,461.7z M2894.95,511.15c-0.7-0.2-1.38-0.48-2.05-0.83
					c-10.46-5.52-21.29-10.67-32.2-15.29c-5.59-2.37-8.2-8.83-5.83-14.42c2.37-5.59,8.83-8.23,14.42-5.83
					c11.48,4.87,22.88,10.28,33.88,16.09c5.37,2.84,7.43,9.49,4.59,14.86C2905.27,510.43,2899.86,512.59,2894.95,511.15z
					 M2770.07,468.02c-5.33-1.56-8.73-6.92-7.72-12.51c1.08-5.98,6.8-9.95,12.78-8.87c12.24,2.21,24.55,4.99,36.58,8.25
					c0.08,0.02,0.15,0.04,0.23,0.06c5.73,1.68,9.08,7.64,7.52,13.43c-1.59,5.87-7.63,9.33-13.49,7.74
					c-11.43-3.09-23.12-5.72-34.75-7.83C2770.83,468.22,2770.44,468.13,2770.07,468.02z"/>
				
					<linearGradient id="SVGID_38_" gradientUnits="userSpaceOnUse" x1="3566.5894" y1="-687.2198" x2="3603.2307" y2="-687.2198" gradientTransform="matrix(0.9596 0.2814 -0.2814 0.9596 -608.2361 254.0611)">
					<stop  offset="0" style="stop-color:#B37CFF"/>
					<stop  offset="1" style="stop-color:#F895E7"/>
				</linearGradient>
				<path class="st42" d="M3027.78,620.69c-2.08-0.61-4-1.84-5.46-3.65c-3.56-4.42-7.26-8.83-11.02-13.13
					c-4-4.57-3.53-11.52,1.04-15.52c4.57-4,11.53-3.54,15.52,1.04c3.95,4.52,7.85,9.16,11.59,13.81c3.81,4.73,3.06,11.66-1.67,15.46
					C3034.86,621.05,3031.11,621.67,3027.78,620.69z"/>
			</g>
			<g class="st40">
				
					<linearGradient id="SVGID_39_" gradientUnits="userSpaceOnUse" x1="3756.7827" y1="-407.2394" x2="3781.9268" y2="-407.2394" gradientTransform="matrix(0.9596 0.2814 -0.2814 0.9596 -608.2361 254.0611)">
					<stop  offset="0" style="stop-color:#B37CFF"/>
					<stop  offset="1" style="stop-color:#F895E7"/>
				</linearGradient>
				<path class="st43" d="M3119.4,943.27c-5.09-1.49-8.49-6.5-7.81-11.94c0.72-5.62,1.32-11.36,1.81-17.04
					c0.52-6.05,5.84-10.54,11.89-10.03c6.08,0.52,10.54,5.84,10.03,11.89c-0.51,5.98-1.15,12.02-1.9,17.95
					c-0.77,6.03-6.27,10.29-12.3,9.53C3120.53,943.56,3119.95,943.43,3119.4,943.27z"/>
				
					<linearGradient id="SVGID_40_" gradientUnits="userSpaceOnUse" x1="3141.0928" y1="-121.2334" x2="3787.3025" y2="-121.2334" gradientTransform="matrix(0.9596 0.2814 -0.2814 0.9596 -608.2361 254.0611)">
					<stop  offset="0" style="stop-color:#B37CFF"/>
					<stop  offset="1" style="stop-color:#F895E7"/>
				</linearGradient>
				<path class="st44" d="M2574.26,1300.81c-4.86-1.42-9.71-2.94-14.55-4.54c-5.77-1.91-8.9-8.13-7-13.89
					c1.9-5.77,8.16-8.91,13.89-7c11.18,3.69,22.48,6.92,33.73,9.63c5.91,1.43,9.54,7.36,8.12,13.27c-1.42,5.91-7.36,9.55-13.27,8.12
					C2588.22,1304.72,2581.18,1302.84,2574.26,1300.81z M2505.93,1274.34c-0.59-0.17-1.17-0.4-1.75-0.68
					c-11.03-5.39-21.95-11.3-32.46-17.58c-5.21-3.11-6.92-9.87-3.8-15.08c3.12-5.22,9.89-6.93,15.08-3.8
					c9.98,5.96,20.36,11.58,30.83,16.7c5.46,2.67,7.72,9.25,5.05,14.71C2516.51,1273.5,2510.98,1275.82,2505.93,1274.34z
					 M2652.26,1316.01c-4.98-1.46-8.37-6.29-7.84-11.64c0.6-6.05,5.99-10.46,12.04-9.86c11.56,1.15,23.33,1.82,34.99,1.99
					c6.07,0.1,10.93,5.08,10.84,11.16c-0.09,6.08-5.09,10.93-11.16,10.84c-12.27-0.18-24.67-0.88-36.85-2.1
					C2653.58,1316.33,2652.91,1316.2,2652.26,1316.01z M2426.27,1223.85c-1.34-0.39-2.62-1.05-3.78-1.98
					c-9.56-7.67-18.92-15.84-27.79-24.29c-4.4-4.19-4.57-11.15-0.39-15.55c4.19-4.4,11.15-4.58,15.55-0.39
					c8.43,8.02,17.31,15.78,26.39,23.07c4.74,3.8,5.5,10.72,1.7,15.46C2435.08,1223.76,2430.42,1225.07,2426.27,1223.85z
					 M2746.49,1314.89c-4.08-1.2-7.27-4.72-7.83-9.21c-0.74-6.03,3.54-11.52,9.57-12.26c11.53-1.42,23.16-3.36,34.57-5.75
					c5.95-1.25,11.78,2.56,13.02,8.51c1.25,5.94-2.56,11.77-8.51,13.02c-12.01,2.52-24.26,4.56-36.39,6.06
					C2749.39,1315.44,2747.89,1315.3,2746.49,1314.89z M2838.2,1293.13c-3.26-0.96-6.04-3.41-7.27-6.86
					c-2.04-5.72,0.94-12.02,6.66-14.06c10.97-3.92,21.9-8.35,32.5-13.16c5.53-2.52,12.05-0.08,14.56,5.46
					c2.51,5.53,0.07,12.05-5.46,14.57c-11.15,5.06-22.65,9.72-34.2,13.85C2842.71,1293.74,2840.35,1293.76,2838.2,1293.13z
					 M2922.98,1251.89c-2.48-0.73-4.72-2.33-6.21-4.69c-3.24-5.14-1.7-11.93,3.44-15.17c9.86-6.22,19.57-12.92,28.86-19.92
					c4.85-3.66,11.74-2.7,15.4,2.16c3.66,4.85,2.69,11.75-2.16,15.4c-9.77,7.37-19.99,14.42-30.37,20.96
					C2929.17,1252.39,2925.9,1252.74,2922.98,1251.89z M2996.75,1193.14c-1.72-0.5-3.34-1.44-4.69-2.8
					c-4.29-4.31-4.27-11.27,0.04-15.55c8.26-8.22,16.26-16.88,23.79-25.76c3.93-4.63,10.88-5.2,15.5-1.28
					c4.64,3.93,5.21,10.87,1.28,15.5c-7.92,9.34-16.35,18.47-25.05,27.12C3004.66,1193.32,3000.47,1194.23,2996.75,1193.14z
					 M3055.84,1119.61c-0.97-0.28-1.91-0.71-2.8-1.27c-5.13-3.25-6.65-10.05-3.39-15.18c6.23-9.81,12.12-20.02,17.51-30.35
					c2.81-5.39,9.47-7.46,14.84-4.66c5.39,2.81,7.47,9.46,4.66,14.84c-5.68,10.87-11.88,21.62-18.44,31.95
					C3065.53,1119.18,3060.42,1120.95,3055.84,1119.61z M3097.3,1034.95c-0.22-0.06-0.43-0.14-0.65-0.21
					c-5.71-2.06-8.68-8.36-6.61-14.08c2.91-8.07,5.6-16.32,8.01-24.53c0.87-2.97,1.71-5.95,2.51-8.93
					c1.58-5.87,7.62-9.34,13.49-7.75c5.97,1.49,9.34,7.62,7.76,13.48c-0.84,3.13-1.72,6.26-2.64,9.39
					c-2.53,8.64-5.37,17.32-8.43,25.8C3108.75,1033.62,3102.84,1036.57,3097.3,1034.95z"/>
				
					<linearGradient id="SVGID_41_" gradientUnits="userSpaceOnUse" x1="3076.6775" y1="14.989" x2="3112.8516" y2="14.989" gradientTransform="matrix(0.9596 0.2814 -0.2814 0.9596 -608.2361 254.0611)">
					<stop  offset="0" style="stop-color:#B37CFF"/>
					<stop  offset="1" style="stop-color:#F895E7"/>
				</linearGradient>
				<path class="st45" d="M2359.52,1156.85c-2.1-0.62-4.03-1.86-5.5-3.69c-3.71-4.66-7.4-9.48-10.95-14.34
					c-3.59-4.9-2.52-11.79,2.38-15.37c4.9-3.59,11.78-2.53,15.37,2.38c3.38,4.61,6.88,9.19,10.4,13.62
					c3.79,4.75,3.01,11.67-1.74,15.45C2366.56,1157.22,2362.83,1157.82,2359.52,1156.85z"/>
			</g>
			<g>
				
					<linearGradient id="SVGID_42_" gradientUnits="userSpaceOnUse" x1="3223.7544" y1="-52.6903" x2="2846.4382" y2="735.6305" gradientTransform="matrix(0.9935 0.1137 -0.1137 0.9935 -234.2843 122.1544)">
					<stop  offset="0" style="stop-color:#A737D5"/>
					<stop  offset="1" style="stop-color:#EF497A"/>
				</linearGradient>
				<path class="st46" d="M2409.66,1038.6c0.85,2.02,2.89,3.28,5.08,3.13l62.43-4.2c17.2,23.62,38.29,44.67,62.82,62.05l-3.38,62.44
					c-0.12,2.19,1.17,4.21,3.2,5.04l69.52,28.27c2.03,0.83,4.36,0.27,5.81-1.38l41.15-47.08c29.71,4.67,59.5,4.31,88.3-0.61
					l41.78,46.57c1.46,1.63,3.8,2.16,5.82,1.3l69.15-29.17c2.02-0.85,3.28-2.89,3.13-5.08l-4.2-62.43
					c23.62-17.2,44.67-38.29,62.05-62.83l62.44,3.38c2.19,0.12,4.21-1.16,5.04-3.2l28.27-69.52c0.83-2.03,0.27-4.36-1.38-5.81
					l-47.08-41.15c4.67-29.71,4.31-59.5-0.61-88.3l46.57-41.79c1.63-1.46,2.16-3.8,1.3-5.82l-29.17-69.15
					c-0.85-2.02-2.89-3.28-5.08-3.13l-62.43,4.2c-17.2-23.62-38.29-44.67-62.82-62.05l3.38-62.44c0.12-2.19-1.16-4.21-3.2-5.04
					l-69.52-28.27c-2.03-0.83-4.36-0.27-5.81,1.38l-41.15,47.08c-29.7-4.68-59.5-4.31-88.3,0.61L2611,559.05
					c-1.46-1.63-3.8-2.16-5.82-1.3l-69.15,29.17c-2.02,0.85-3.28,2.89-3.13,5.08l4.2,62.43c-23.62,17.2-44.67,38.29-62.05,62.83
					l-62.44-3.38c-2.19-0.12-4.21,1.16-5.04,3.2l-28.27,69.52c-0.83,2.03-0.27,4.36,1.38,5.81l47.08,41.15
					c-4.67,29.7-4.31,59.5,0.61,88.3l-46.57,41.79c-1.63,1.46-2.16,3.8-1.3,5.82L2409.66,1038.6z"/>
				<path class="st47" d="M2677.41,948.33c-35.29-10.35-58.68-45.35-53.44-82.83c5.76-41.2,43.96-70.03,85.16-64.27
					c19.96,2.79,37.64,13.18,49.77,29.27c12.14,16.08,17.29,35.93,14.5,55.89c-5.76,41.2-43.96,70.03-85.16,64.27
					C2684.52,950.14,2680.91,949.35,2677.41,948.33z M2715.08,820.47c-2.73-0.8-5.52-1.4-8.39-1.81
					c-31.59-4.42-60.88,17.69-65.29,49.27c-4.42,31.59,17.68,60.89,49.28,65.29c31.58,4.42,60.88-17.69,65.29-49.27
					c2.14-15.3-1.81-30.52-11.11-42.85C2737.29,831.08,2726.91,823.94,2715.08,820.47z"/>
				<path class="st47" d="M2648.23,1053.32c-6.06-1.78-12.07-3.87-18-6.28l0,0c-1.87-0.76-3.72-1.55-5.56-2.37
					c-9.08-4.04-17.83-8.79-26.1-14.19c-0.11-0.07-0.23-0.15-0.34-0.22c-0.32-0.21-0.64-0.42-0.96-0.63
					c-0.62-0.41-1.24-0.83-1.85-1.25c-1.62-1.1-2.27-3.09-1.75-4.87c0.13-0.43,0.32-0.85,0.59-1.25c1.37-2.01,4.11-2.52,6.11-1.15
					c10.33,7.05,21.49,13.02,33.17,17.77c58,23.59,121.37,14.02,169-19.78c26.49-18.8,48.12-45.09,61.23-77.35
					c2.3-5.66,4.3-11.39,5.99-17.17c11.4-38.91,9.1-80.2-6.87-118.06c-18.34-43.49-52.53-77.23-96.25-95
					c-90.3-36.7-193.54,6.88-230.24,97.13c-2.26,5.56-4.24,11.22-5.91,16.95c-7.27,24.82-9.03,50.95-5.07,76.53
					c0.1,0.66,0.05,1.31-0.13,1.91c-0.46,1.58-1.81,2.84-3.55,3.11c-2.4,0.37-4.65-1.27-5.02-3.68
					c-4.17-26.85-2.32-54.29,5.32-80.35c1.76-6.01,3.83-11.95,6.2-17.79c38.53-94.76,146.98-140.48,241.7-101.97
					c45.9,18.66,81.78,54.08,101.04,99.73c16.77,39.74,19.19,83.1,7.22,123.94c-1.78,6.07-3.88,12.09-6.29,18.02
					c-18.66,45.9-54.08,81.79-99.73,101.04C2732.45,1062.88,2689.08,1065.3,2648.23,1053.32z"/>
			</g>
		</g>
		<g>
			<g class="st40">
				
					<linearGradient id="SVGID_43_" gradientUnits="userSpaceOnUse" x1="2535.5293" y1="0.5886" x2="2553.4124" y2="0.5886" gradientTransform="matrix(0.9596 0.2814 -0.2814 0.9596 -608.2361 254.0611)">
					<stop  offset="0" style="stop-color:#B37CFF"/>
					<stop  offset="1" style="stop-color:#F895E7"/>
				</linearGradient>
				<path class="st48" d="M1831.1,985.65c-2.82-0.83-4.88-3.43-4.88-6.52c0-5.77,0.17-11.61,0.51-17.38
					c0.22-3.74,3.44-6.6,7.19-6.38c3.75,0.21,6.6,3.44,6.38,7.19c-0.33,5.49-0.49,11.06-0.49,16.57c0,3.75-3.04,6.79-6.79,6.8
					C1832.35,985.92,1831.71,985.82,1831.1,985.65z"/>
				
					<linearGradient id="SVGID_44_" gradientUnits="userSpaceOnUse" x1="2528.2878" y1="-200.3124" x2="2878.7646" y2="-200.3124" gradientTransform="matrix(0.9596 0.2814 -0.2814 0.9596 -608.2361 254.0611)">
					<stop  offset="0" style="stop-color:#B37CFF"/>
					<stop  offset="1" style="stop-color:#F895E7"/>
				</linearGradient>
				<path class="st49" d="M1835.89,933.61c-3.3-0.97-5.4-4.3-4.76-7.76c1.81-9.76,4.15-19.55,6.94-29.07
					c0.59-2.01,1.2-4.01,1.83-6.02c1.14-3.58,5.1-5.37,8.53-4.43c3.58,1.13,5.56,4.95,4.43,8.52c-0.61,1.92-1.19,3.83-1.76,5.75
					c-2.66,9.08-4.89,18.41-6.62,27.72c-0.68,3.69-4.23,6.12-7.92,5.44C1836.33,933.72,1836.11,933.67,1835.89,933.61z
					 M1857.16,866.35c-0.31-0.09-0.62-0.2-0.92-0.34c-3.41-1.56-4.92-5.59-3.36-9.01c5-10.95,10.72-21.69,17-31.91
					c1.96-3.2,6.16-4.18,9.34-2.23c3.2,1.97,4.2,6.15,2.23,9.34c-6,9.75-11.45,20-16.22,30.44
					C1863.82,865.76,1860.35,867.29,1857.16,866.35z M1894.11,806.27c-0.83-0.24-1.62-0.65-2.34-1.22c-2.93-2.35-3.4-6.62-1.05-9.55
					c7.52-9.38,15.71-18.39,24.34-26.77c2.69-2.62,6.98-2.56,9.61,0.14c2.61,2.69,2.55,6.99-0.14,9.6
					c-8.23,8-16.04,16.58-23.21,25.53C1899.55,806.21,1896.67,807.02,1894.11,806.27z M1944.7,757.1c-1.35-0.4-2.59-1.21-3.5-2.42
					c-2.26-2.99-1.67-7.26,1.32-9.52c9.61-7.26,19.74-13.99,30.14-20c3.25-1.87,7.4-0.75,9.28,2.49c1.88,3.25,0.77,7.4-2.48,9.28
					c-9.91,5.72-19.58,12.14-28.74,19.07C1948.93,757.36,1946.7,757.69,1944.7,757.1z M2005.77,721.79
					c-1.88-0.55-3.52-1.92-4.35-3.87c-1.47-3.45,0.15-7.44,3.6-8.91c11.07-4.7,22.54-8.76,34.08-12.07c3.61-1.04,7.37,1.05,8.4,4.66
					c1.03,3.61-1.05,7.37-4.66,8.4c-11.01,3.16-21.95,7.03-32.51,11.52C2008.83,722.16,2007.22,722.21,2005.77,721.79z
					 M2073.54,702.36c-2.44-0.72-4.38-2.78-4.8-5.47c-0.58-3.7,1.95-7.18,5.65-7.76c11.88-1.87,23.99-3.01,35.99-3.39
					c3.76-0.11,6.89,2.83,7.01,6.58c0.12,3.75-2.82,6.89-6.57,7.01c-11.44,0.36-22.98,1.45-34.31,3.23
					C2075.48,702.72,2074.48,702.64,2073.54,702.36z M2143.99,700.1c-3.06-0.9-5.15-3.85-4.85-7.14c0.34-3.74,3.65-6.49,7.39-6.14
					c11.94,1.1,23.96,2.97,35.74,5.54c3.66,0.87,5.99,4.43,5.18,8.09c-0.8,3.66-4.42,5.98-8.09,5.19
					c-11.23-2.46-22.7-4.24-34.08-5.29C2144.84,700.31,2144.41,700.22,2143.99,700.1z M2245.45,728.95
					c-0.38-0.11-0.75-0.26-1.12-0.44c-8.87-4.41-18.14-8.4-27.55-11.88c-1.42-0.53-2.83-1.04-4.23-1.53
					c-3.54-1.25-5.41-5.12-4.16-8.66c1.24-3.55,5.17-5.51,8.66-4.17c1.5,0.53,2.99,1.06,4.48,1.62c9.83,3.64,19.55,7.83,28.85,12.45
					c3.36,1.67,4.73,5.74,3.06,9.1C2251.95,728.45,2248.55,729.86,2245.45,728.95z"/>
			</g>
			<g class="st40">
				
					<linearGradient id="SVGID_45_" gradientUnits="userSpaceOnUse" x1="2684.7102" y1="135.6695" x2="3084.7305" y2="135.6695" gradientTransform="matrix(0.9596 0.2814 -0.2814 0.9596 -608.2361 254.0611)">
					<stop  offset="0" style="stop-color:#B37CFF"/>
					<stop  offset="1" style="stop-color:#F895E7"/>
				</linearGradient>
				<path class="st50" d="M2040.99,1261.74c-3.56-1.04-5.63-4.76-4.63-8.35c1.01-3.61,4.76-5.73,8.37-4.72
					c10.88,3.04,22.04,5.44,33.16,7.13c3.68,0.59,6.26,4.03,5.69,7.74c-0.57,3.71-4.03,6.26-7.74,5.69
					c-11.67-1.78-23.36-4.29-34.77-7.48C2041.05,1261.76,2041.02,1261.75,2040.99,1261.74z M2008.14,1250.4
					c-0.24-0.07-0.46-0.15-0.7-0.25c-10.93-4.52-21.7-9.75-32-15.54c-3.27-1.84-4.43-5.98-2.59-9.25c1.84-3.28,6-4.42,9.25-2.6
					c9.83,5.53,20.1,10.52,30.53,14.84c3.47,1.43,5.11,5.41,3.68,8.87C2014.97,1249.71,2011.42,1251.36,2008.14,1250.4z
					 M2109.57,1272.17c-2.89-0.85-4.96-3.56-4.88-6.71c0.11-3.74,3.23-6.7,6.98-6.59c11.3,0.31,22.71-0.05,33.92-1.1
					c3.74-0.33,7.05,2.4,7.39,6.14c0.35,3.73-2.4,7.05-6.13,7.4c-11.75,1.1-23.71,1.48-35.55,1.15
					C2110.69,1272.42,2110.11,1272.33,2109.57,1272.17z M1947.66,1216.34c-0.74-0.22-1.46-0.57-2.12-1.05
					c-9.53-7.02-18.72-14.7-27.31-22.82c-2.73-2.58-2.85-6.88-0.27-9.61c2.57-2.72,6.87-2.84,9.6-0.27
					c8.2,7.75,16.96,15.07,26.04,21.76c3.02,2.23,3.66,6.48,1.44,9.5C1953.3,1216.21,1950.32,1217.12,1947.66,1216.34z
					 M2178.63,1265.71c-2.31-0.68-4.19-2.56-4.73-5.07c-0.8-3.67,1.52-7.29,5.19-8.09c11.02-2.4,22-5.5,32.65-9.22
					c3.55-1.24,7.42,0.63,8.65,4.18c1.24,3.54-0.63,7.42-4.18,8.66c-11.17,3.9-22.68,7.15-34.23,9.67
					C2180.83,1266.08,2179.68,1266.02,2178.63,1265.71z M2244.12,1242.88c-1.77-0.52-3.32-1.75-4.19-3.52
					c-1.65-3.37-0.27-7.44,3.1-9.09c10.14-4.98,20.07-10.62,29.51-16.76c3.15-2.05,7.36-1.15,9.4,1.99
					c2.05,3.14,1.16,7.35-1.99,9.39c-9.89,6.44-20.3,12.35-30.93,17.58C2247.44,1243.23,2245.69,1243.34,2244.12,1242.88z
					 M2302.27,1205c-1.24-0.36-2.39-1.08-3.29-2.15c-2.41-2.87-2.04-7.16,0.84-9.57c8.66-7.26,16.94-15.12,24.62-23.35
					c2.56-2.73,6.86-2.89,9.6-0.33c2.74,2.56,2.89,6.86,0.33,9.6c-8.06,8.63-16.74,16.88-25.82,24.49
					C2306.74,1205.21,2304.37,1205.62,2302.27,1205z"/>
				
					<linearGradient id="SVGID_46_" gradientUnits="userSpaceOnUse" x1="2640.7351" y1="160.6991" x2="2668.0933" y2="160.6991" gradientTransform="matrix(0.9596 0.2814 -0.2814 0.9596 -608.2361 254.0611)">
					<stop  offset="0" style="stop-color:#B37CFF"/>
					<stop  offset="1" style="stop-color:#F895E7"/>
				</linearGradient>
				<path class="st51" d="M1897.01,1168.43c-1.26-0.37-2.42-1.1-3.32-2.19c-3.71-4.48-7.29-9.09-10.67-13.71
					c-2.21-3.03-1.56-7.28,1.47-9.5c3.03-2.2,7.28-1.55,9.5,1.47c3.22,4.4,6.64,8.8,10.18,13.08c2.39,2.89,1.98,7.18-0.91,9.56
					C1901.45,1168.64,1899.1,1169.04,1897.01,1168.43z"/>
			</g>
			<g>
				
					<linearGradient id="SVGID_47_" gradientUnits="userSpaceOnUse" x1="2337.4917" y1="872.2767" x2="2526.1501" y2="319.7784" gradientTransform="matrix(0.9935 0.1137 -0.1137 0.9935 -234.2843 122.1544)">
					<stop  offset="0" style="stop-color:#A737D5"/>
					<stop  offset="1" style="stop-color:#EF497A"/>
				</linearGradient>
				<path class="st52" d="M1927.13,1085.8c0.57,1.35,1.94,2.19,3.4,2.1l41.77-2.81c11.51,15.81,25.62,29.89,42.04,41.52l-2.26,41.78
					c-0.08,1.47,0.78,2.82,2.14,3.37l46.52,18.92c1.36,0.55,2.92,0.18,3.89-0.92l27.53-31.51c19.88,3.13,39.81,2.89,59.09-0.41
					l27.96,31.16c0.98,1.09,2.55,1.44,3.9,0.87l46.27-19.52c1.35-0.57,2.19-1.94,2.1-3.4l-2.81-41.77
					c15.81-11.51,29.89-25.62,41.52-42.04l41.78,2.26c1.47,0.08,2.82-0.78,3.37-2.14l18.92-46.52c0.55-1.36,0.18-2.92-0.92-3.89
					l-31.5-27.53c3.13-19.88,2.89-39.81-0.41-59.09l31.16-27.96c1.09-0.98,1.44-2.54,0.87-3.9l-19.52-46.27
					c-0.57-1.35-1.94-2.19-3.4-2.09l-41.77,2.81c-11.51-15.81-25.62-29.89-42.04-41.52l2.26-41.78c0.08-1.46-0.78-2.82-2.14-3.37
					l-46.52-18.92c-1.36-0.55-2.92-0.18-3.89,0.92l-27.53,31.51c-19.88-3.13-39.81-2.89-59.09,0.41l-27.96-31.16
					c-0.98-1.09-2.55-1.44-3.9-0.87l-46.27,19.52c-1.35,0.57-2.19,1.94-2.1,3.4l2.81,41.77c-15.81,11.51-29.89,25.62-41.52,42.04
					l-41.78-2.26c-1.46-0.08-2.82,0.78-3.37,2.14l-18.92,46.52c-0.55,1.36-0.18,2.92,0.92,3.89l31.51,27.53
					c-3.13,19.88-2.89,39.81,0.4,59.09l-31.16,27.96c-1.09,0.98-1.44,2.54-0.87,3.9L1927.13,1085.8z"/>
				<path class="st47" d="M2105.97,1026.25c-10.52-3.08-19.73-9.43-26.45-18.33c-8.27-10.96-11.77-24.48-9.87-38.07
					c3.92-28.05,29.94-47.69,58-43.78c28.09,3.98,47.7,29.95,43.78,58.01c-1.9,13.6-8.98,25.64-19.94,33.9
					c-10.96,8.27-24.48,11.78-38.07,9.87C2110.87,1027.49,2108.38,1026.96,2105.97,1026.25z M2131.19,940.69
					c-1.75-0.51-3.56-0.91-5.43-1.17c-20.64-2.88-39.78,11.56-42.67,32.21c-1.4,10,1.18,19.95,7.26,28
					c6.08,8.06,14.94,13.26,24.94,14.67l0,0c10,1.4,19.95-1.18,28-7.26c8.06-6.08,13.27-14.94,14.67-24.94
					C2160.59,963.42,2148.87,945.87,2131.19,940.69z"/>
				<path class="st47" d="M2085.56,1099.3c-4.13-1.21-8.22-2.64-12.29-4.29c-8.07-3.28-15.82-7.38-23.04-12.21
					c-0.32-0.22-0.65-0.44-0.97-0.66c-2.5-1.7-3.5-4.77-2.7-7.52c0.2-0.67,0.5-1.32,0.91-1.92c2.11-3.1,6.34-3.88,9.44-1.78
					c6.7,4.57,13.92,8.44,21.47,11.5l0,0c0.41,0.17,0.83,0.33,1.24,0.5c17.92,7.09,36.93,9.44,55.56,7.16
					c10.11-1.24,20.12-3.85,29.79-7.82c0.08-0.03,0.16-0.06,0.24-0.1c0.24-0.1,0.48-0.2,0.72-0.3
					c28.15-11.88,49.99-34.01,61.5-62.31c1.49-3.66,2.78-7.37,3.88-11.11c7.38-25.19,5.89-51.92-4.45-76.43
					c-11.88-28.15-34.01-49.99-62.31-61.49c-28.29-11.49-59.4-11.3-87.55,0.57c-28.15,11.88-49.99,34.01-61.5,62.31
					c-1.47,3.6-2.74,7.26-3.83,10.97c-4.71,16.07-5.85,32.98-3.28,49.54c0.16,1.02,0.08,2.02-0.19,2.95
					c-0.72,2.44-2.79,4.39-5.48,4.8c-3.71,0.56-7.18-1.96-7.76-5.68c-2.87-18.53-1.6-37.46,3.66-55.43
					c1.22-4.15,2.64-8.25,4.28-12.28c12.88-31.67,37.31-56.42,68.81-69.71c31.49-13.28,66.27-13.54,97.94-0.64
					c31.67,12.87,56.42,37.31,69.71,68.81c11.57,27.42,13.24,57.33,4.98,85.51c-1.23,4.18-2.67,8.34-4.34,12.43
					C2215.1,1085.97,2147.75,1117.54,2085.56,1099.3z"/>
			</g>
		</g>
	</g>
</g>
</svg>
